<svg width="292" height="87" viewBox="0 0 292 87" fill="none" xmlns="http://www.w3.org/2000/svg">
<g clip-path="url(#clip0_26_12)">
<path fill-rule="evenodd" clip-rule="evenodd" d="M61.3785 42.5979H61.3696L58.9506 41.2061C58.3858 40.8825 58.0657 40.3195 58.0657 39.6768C58.0657 39.0341 58.3858 38.4844 58.9506 38.152L61.0272 36.9551C61.5875 36.636 61.9121 36.0819 61.9121 35.4303V6.12593C61.9121 5.46989 61.5875 4.92467 61.0272 4.60109C60.4625 4.2775 59.8266 4.2775 59.2618 4.60109L40.4699 15.4257C39.9096 15.7448 39.585 16.2945 39.585 16.9416C39.585 35.9622 39.5761 54.9917 39.5627 74.0123C39.5627 74.6594 39.8874 75.2179 40.4521 75.5415L59.2396 86.3351C59.791 86.6542 60.4402 86.6542 61.005 86.3351C61.5697 86.0115 61.8765 85.4485 61.8765 84.8058L61.9076 56.2594C61.9076 56.0865 61.9299 55.9181 61.9788 55.7585V43.6396C61.9788 43.2141 61.7476 42.8151 61.3785 42.5979ZM52.9919 69.451C52.983 70.0982 52.6673 70.6479 52.1026 70.9714C51.5378 71.2995 50.8931 71.2995 50.3417 70.9803L49.3589 70.4129C48.7942 70.0893 48.4696 69.5397 48.4696 68.8925V48.5022C48.4696 47.8551 48.7942 47.2966 49.3589 46.973C49.9237 46.6494 50.5595 46.6494 51.1243 46.973L52.1026 47.5359C52.6673 47.8595 52.9919 48.4225 52.9919 49.0652V69.4555V69.451ZM53.0008 30.3283C53.0008 30.9755 52.6762 31.5251 52.1159 31.8576L51.1332 32.4205C50.5729 32.7441 49.9281 32.7441 49.3723 32.4205C48.8075 32.0969 48.4874 31.534 48.4874 30.8912V22.0525C48.4874 21.4009 48.8075 20.8468 49.3723 20.5277L50.3506 19.9647C50.9153 19.6411 51.5512 19.6411 52.1159 19.9647C52.6762 20.2883 53.0008 20.838 53.0008 21.4896V30.3283Z" fill="#E2E2E2"/>
<path fill-rule="evenodd" clip-rule="evenodd" d="M22.5406 51.4056L34.1955 44.6857C34.7602 44.3621 35.0804 43.7992 35.0804 43.1564V16.915C35.0804 16.2679 34.7602 15.7227 34.1955 15.3902L15.4524 4.67201C14.8877 4.34843 14.2563 4.34843 13.6915 4.67201C13.1268 4.99559 12.8022 5.55411 12.8022 6.19685L12.8111 45.7451C12.8111 46.3923 12.4865 46.9419 11.9217 47.2655L0.871562 53.622C0.306826 53.9456 0 54.4952 0 55.138C0 55.7807 0.311272 56.3436 0.871562 56.6672L6.24768 59.7524C6.81242 60.0759 7.4483 60.0759 8.01304 59.7612L10.1786 58.5245C10.7433 58.2009 11.3792 58.2009 11.9395 58.5245C12.5043 58.8481 12.8155 59.3933 12.8155 60.0405L12.8244 84.7748C12.8244 85.4175 13.1357 85.9672 13.7004 86.2907C14.2652 86.6143 14.9055 86.6143 15.4613 86.2907L34.1777 75.5814C34.7424 75.2578 35.067 74.7082 35.067 74.0566V52.4163C35.067 51.7736 34.7558 51.2195 34.191 50.8915C33.6263 50.5679 32.986 50.5679 32.4212 50.9003L27.0451 53.9943C26.4937 54.3179 26.1691 54.8764 26.1691 55.5192V68.9413C26.1691 69.5885 25.8445 70.1381 25.2798 70.4617L24.3015 71.0291C23.7367 71.3527 23.1008 71.3527 22.5361 71.0291C21.9758 70.7099 21.6512 70.147 21.6512 69.5042V52.9393C21.6512 52.2833 21.9758 51.7337 22.5361 51.4101L22.5406 51.4056ZM21.6645 21.4851C21.6645 20.838 21.9892 20.2839 22.5539 19.9603C23.1186 19.6367 23.7545 19.6367 24.3148 19.9603L25.2975 20.5232C25.8623 20.8424 26.1869 21.4053 26.1869 22.0481L26.178 38.0367C26.178 38.6839 25.8667 39.2424 25.302 39.566L24.3193 40.1245C23.759 40.4481 23.1142 40.4481 22.5583 40.1245C21.9936 39.8053 21.669 39.2557 21.669 38.5997V21.4896L21.6645 21.4851Z" fill="#E2E2E2"/>
<path d="M80.3394 3.42645H106.682V9.98237H88.5836V19.7786H105.019V26.3079H88.5836V35.2486H107.513V41.8045H80.3394V3.42645Z" fill="#F9B52D"/>
<path d="M128.533 19.8628C128.346 18.9807 127.808 18.2316 126.95 17.5888C126.065 16.9727 125.016 16.6535 123.806 16.6535C120.88 16.6535 118.919 17.806 118.919 19.9204C118.919 21.3389 120.156 22.3273 121.579 22.8371C122.277 23.1031 123.268 23.4001 124.558 23.6926C128.209 24.5481 130.463 25.1909 132.669 26.2104C133.772 26.7201 134.603 27.2831 135.221 27.8948C136.404 29.1005 137.155 30.7317 137.075 32.8461C136.889 38.8435 132.135 42.2123 123.971 42.2123C120.022 42.2123 116.883 41.4632 114.49 39.9649C112.103 38.4667 110.76 36.3257 110.462 33.5154L118.141 32.8727C118.408 34.0784 119.106 35.0136 120.209 35.683C121.312 36.3523 122.57 36.6981 123.966 36.6981C127.052 36.6981 129.285 35.386 129.285 33.1386C129.285 30.8913 126.626 29.659 122.357 28.6971C120.156 28.1873 118.435 27.7086 117.176 27.2786C115.913 26.8487 114.815 26.2902 113.819 25.6208C111.831 24.2822 111.16 22.6243 111.16 19.8672C111.16 17.1101 112.289 14.9159 114.57 13.4443C116.852 11.9726 119.995 11.2235 124.024 11.2235C131.219 11.2235 135.706 14.0072 136.271 19.3619L128.538 19.8716L128.533 19.8628Z" fill="#F9B52D"/>
<path d="M141.522 4.87146H149.255V11.6712H156.721V17.6952H149.255V31.3744C149.255 33.839 150.193 35.1998 152.048 35.4702C153.417 35.7627 154.974 35.7627 156.721 35.417V41.7601C154.707 42.0793 152.826 42.2433 151.083 42.2433C147.619 42.2433 145.173 41.3878 143.723 39.6458C142.247 37.9081 141.522 35.2574 141.522 31.6404V17.6952H137.413V11.6712H141.522V4.87146Z" fill="#F9B52D"/>
<path d="M182.112 16.0861L182.459 11.6712H189.845V41.8089H182.459L182.112 37.3674C180.476 40.6077 176.878 42.2389 171.346 42.2389C167.371 42.2389 163.774 40.5811 161.221 37.9037C158.669 35.2264 157.086 31.2104 157.086 26.7423C157.086 22.2741 158.669 18.2581 161.221 15.5542C163.774 12.8769 167.371 11.2191 171.346 11.2191C176.393 11.2191 180.369 13.0143 182.112 16.0906V16.0861ZM179.613 33.1652C181.276 31.4808 182.112 29.3398 182.112 26.7157C182.112 24.0915 181.28 21.9771 179.613 20.2927C177.923 18.6083 175.882 17.775 173.436 17.775C170.991 17.775 168.981 18.6039 167.34 20.2927C165.677 21.9771 164.841 24.1181 164.841 26.7423C164.841 29.3664 165.672 31.4808 167.34 33.1652C169.003 34.8496 171.044 35.7096 173.436 35.7096C175.829 35.7096 177.919 34.854 179.613 33.1652Z" fill="#F9B52D"/>
<path d="M215.672 31.3168L222.76 34.1803C221.657 36.4011 219.994 38.1963 217.819 39.5882C215.618 40.98 213.173 41.8355 210.46 42.1325V43.6573C211.883 43.5244 213.359 44.3001 214.084 45.3684C214.756 46.1441 215.049 47.137 214.916 48.3382C214.782 49.5173 214.218 50.4526 213.279 51.122C211.372 52.7266 208.312 52.9438 203.692 52.6202V49.0608C206.164 49.2469 207.881 49.1406 208.819 48.7682C210.295 48.2585 210.727 46.9464 209.864 46.1175C209.353 45.4481 207.93 45.0758 206.4 45.3684V42.1281C202.398 41.7247 198.827 40.0403 196.248 37.4693C193.642 34.8984 192.033 31.0464 192.033 26.7378C192.033 23.635 192.784 20.8779 194.287 18.4931C195.79 16.1083 197.778 14.2909 200.25 13.0586C202.723 11.8263 205.431 11.2102 208.415 11.2102C211.398 11.2102 214.378 11.9327 216.979 13.3778C219.558 14.8228 221.488 16.7776 222.751 19.2644L215.663 22.1545C214.24 19.1846 211.554 17.6021 208.415 17.6021C205.973 17.6021 203.932 18.4576 202.265 20.1465C200.575 21.8309 199.739 24.0295 199.739 26.7024C199.739 29.3753 200.57 31.6005 202.265 33.2849C203.928 34.9959 205.969 35.8558 208.415 35.8558C211.554 35.8558 214.24 34.2778 215.663 31.3035L215.672 31.3168Z" fill="#F9B52D"/>
<path d="M249.311 16.0861L249.658 11.6712H257.044V41.8089H249.658L249.311 37.3674C247.675 40.6077 244.077 42.2389 238.546 42.2389C234.57 42.2389 230.973 40.5811 228.42 37.9037C225.868 35.2264 224.285 31.2104 224.285 26.7423C224.285 22.2741 225.868 18.2581 228.42 15.5542C230.973 12.8769 234.57 11.2191 238.546 11.2191C243.593 11.2191 247.568 13.0143 249.311 16.0906V16.0861ZM250.654 -2.2897e-05C250.654 3.10285 249.823 5.27485 248.182 6.47611C246.812 7.6286 245.096 7.94775 243.081 7.4114C242.223 7.27842 241.227 6.92824 240.075 6.39632C238.919 5.88656 238.034 5.56741 237.416 5.48762C236.745 5.43443 236.26 5.70039 236.02 6.31653C235.886 6.60909 235.833 7.27842 235.833 8.29793H230.515C230.515 5.30145 231.293 3.21366 232.849 2.00798C234.112 0.695906 235.802 0.296966 237.923 0.749098C238.781 0.882078 239.777 1.23226 240.929 1.79078C242.059 2.38032 242.997 2.69947 243.748 2.77926C244.393 2.80586 244.851 2.5399 245.091 1.95035C245.251 1.54698 245.331 0.877646 245.331 -0.00445557H250.65L250.654 -2.2897e-05ZM246.817 33.1652C248.48 31.4808 249.316 29.3398 249.316 26.7157C249.316 24.0915 248.484 21.9771 246.817 20.2927C245.127 18.6083 243.086 17.775 240.64 17.775C238.194 17.775 236.184 18.6039 234.544 20.2927C232.88 21.9771 232.044 24.1181 232.044 26.7423C232.044 29.3664 232.876 31.4808 234.544 33.1652C236.207 34.8496 238.248 35.7096 240.64 35.7096C243.032 35.7096 245.122 34.8541 246.817 33.1652Z" fill="#F9B52D"/>
<path d="M261.495 34.956C259.992 32.5757 259.241 29.8451 259.241 26.7378C259.241 23.6305 259.992 20.8779 261.495 18.4931C262.998 16.1127 264.986 14.2909 267.458 13.0586C269.931 11.8263 272.639 11.2102 275.623 11.2102C281.528 11.2102 286.713 13.7014 289.746 18.4886C291.249 20.869 292 23.6261 292 26.7334C292 29.8407 291.249 32.5668 289.746 34.9516C288.216 37.3319 286.228 39.1537 283.756 40.386C281.283 41.6183 278.575 42.2345 275.618 42.2345C269.686 42.2345 264.501 39.7167 261.495 34.956ZM281.768 33.1608C283.458 31.4764 284.294 29.3044 284.294 26.7112C284.294 24.1181 283.462 21.9727 281.768 20.2883C280.078 18.6039 278.037 17.7706 275.618 17.7706C273.199 17.7706 271.136 18.5995 269.468 20.2883C267.779 21.9727 266.943 24.1137 266.943 26.7112C266.943 29.3088 267.774 31.4764 269.468 33.1608C271.131 34.8452 273.173 35.7051 275.618 35.7051C278.064 35.7051 280.074 34.8496 281.768 33.1608Z" fill="#F9B52D"/>
<path d="M110.066 69.9785C111.382 71.7161 112.054 73.7773 112.054 76.1887C112.054 79.2384 110.977 81.7295 108.803 83.6577C106.629 85.6125 103.969 86.5744 100.799 86.5744H80.3394V48.192H99.4292C102.626 48.192 105.281 49.1007 107.46 50.9491C109.608 52.7975 110.684 55.2044 110.684 58.2275C110.684 62.6956 108.456 65.6966 105.339 66.7382C107.14 67.1948 108.723 68.2631 110.066 69.9785ZM88.5836 54.5617V64.2781H97.7395C99.0557 64.2781 100.154 63.7949 101.07 62.8597C101.955 61.9244 102.413 60.7719 102.413 59.4066C102.413 58.0413 101.955 56.8889 101.07 55.9536C100.158 55.0183 99.0557 54.5617 97.7395 54.5617H88.5836ZM99.1358 80.1781C100.452 80.1781 101.55 79.7215 102.466 78.7862C103.351 77.8509 103.809 76.6985 103.809 75.3332C103.809 73.9679 103.351 72.8154 102.44 71.8801C101.528 70.9448 100.425 70.4883 99.1358 70.4883H88.5836V80.1781H99.1358Z" fill="#F9B52D"/>
<path d="M141.664 60.7719C144.537 63.8216 146.147 68.4803 145.827 73.9147H121.365C121.823 76.0291 122.841 77.7401 124.371 78.999C125.901 80.2579 127.702 80.9006 129.743 80.9006C133.287 80.9006 136.133 78.999 137.636 75.7632L144.266 78.9237C142.896 81.4414 140.908 83.4184 138.303 84.8368C135.697 86.2819 132.824 87.0044 129.738 87.0044C123.802 87.0044 118.648 84.4867 115.642 79.726C114.139 77.3456 113.388 74.6151 113.388 71.5078C113.388 68.4005 114.139 65.6478 115.642 63.263C117.145 60.8783 119.133 59.0609 121.605 57.8286C124.046 56.5963 126.759 55.9802 129.743 55.9802C134.55 55.9802 138.765 57.7178 141.664 60.7719ZM124.264 63.9856C122.735 65.2444 121.765 66.9555 121.365 69.0964H138.147C137.716 66.9555 136.751 65.24 135.248 63.9856C133.745 62.7267 131.917 62.1105 129.743 62.1105C127.568 62.1105 125.767 62.7267 124.264 63.9856Z" fill="#F9B52D"/>
<path d="M150.251 49.637H157.984V56.4367H165.45V62.4607H157.984V76.14C157.984 78.6045 158.922 79.9653 160.777 80.2357C162.146 80.5283 163.703 80.5283 165.45 80.1825V86.5257C163.436 86.8448 161.555 87.0089 159.812 87.0089C156.348 87.0089 153.902 86.1533 152.452 84.4113C150.976 82.6737 150.251 80.023 150.251 76.4059V62.4607H146.142V56.4367H150.251V49.637Z" fill="#F9B52D"/>
</g>
<defs>
<clipPath id="clip0_26_12">
<rect width="292" height="87" fill="white"/>
</clipPath>
</defs>
</svg>
