<svg width="290" height="51" viewBox="0 0 290 51" fill="none" xmlns="http://www.w3.org/2000/svg">
<g clip-path="url(#clip0_4_6262)">
<path d="M119.074 0.00857544H147.212V6.18194H126.635V15.575H145.591V21.7484H126.635V37.5829H119.074V0.00857544Z" fill="white"/>
<path d="M152.343 37.5808V0H159.903V37.5808H152.343Z" fill="white"/>
<path d="M196.572 10.7444L177.885 51H169.512L176.048 37.5808L165.083 10.7444H173.294L180.261 29.0479L188.199 10.7444H196.572Z" fill="white"/>
<path d="M230.971 27.2224C230.971 35.8111 224.706 37.5808 220.061 37.5808H201.698V0.00857544H219.521C224.328 0.00857544 229.89 1.24196 229.89 9.40162C229.89 13.8568 227.244 17.0229 222.491 17.9367V18.0439C227.136 18.5265 230.971 21.9092 230.971 27.2224ZM222.329 10.6372C222.329 6.7182 219.413 6.18194 217.9 6.18194H209.258V15.2532H217.9C219.413 15.2532 222.329 14.5561 222.329 10.6372ZM223.409 26.4181C223.409 22.0701 219.953 21.4266 218.44 21.4266H209.258V31.4095H218.44C219.953 31.4095 223.409 30.766 223.409 26.4181Z" fill="#43E4FF"/>
<path d="M250.738 38.1192H249.551C241.72 38.1192 235.292 35.4894 235.292 24.2173C235.292 12.9452 241.72 10.2082 249.551 10.2082H250.738C261.052 10.2082 263.916 16.3279 263.916 25.7746H243.069C243.339 29.8008 244.744 31.9479 249.335 31.9479H250.956C254.249 31.9479 256.086 30.7682 256.086 28.7283H263.863C263.863 34.7408 258.139 38.1213 250.738 38.1213V38.1192ZM256.03 20.6759C255.652 18.0997 254.463 16.3815 250.36 16.3815H249.335C245.879 16.3815 244.042 17.7779 243.339 20.6759H256.03Z" fill="#43E4FF"/>
<path d="M287.084 37.5807C278.226 37.5807 272.664 37.5807 272.664 25.3434V16.6475H267.318V10.7423H272.664V3.8739H280.225V10.7444H289.137V16.6496H280.225V25.3456C280.225 29.1573 280.117 31.4117 285.355 31.4117H290L289.137 37.585H287.084V37.5807Z" fill="#43E4FF"/>
<path d="M45.7808 19.3438L37.0136 33.147H21.0504L12.2832 19.3438H45.7808Z" fill="white"/>
<path d="M90.8556 19.3438L82.0905 33.147H62.9071L61.2171 35.8111L51.5693 51L41.9237 35.8111L41.915 35.7939L52.3614 19.3438H90.8556Z" fill="#43E4FF"/>
<path d="M47.2419 13.8054H8.76721L0 0H38.4747L47.2419 13.8054Z" fill="white"/>
<path d="M103.139 0L94.3739 13.8054H55.8992L64.6642 0H103.139Z" fill="white"/>
</g>
<defs>
<clipPath id="clip0_4_6262">
<rect width="290" height="51" fill="white"/>
</clipPath>
</defs>
</svg>
