<svg width="522" height="446" viewBox="0 0 522 446" fill="none" xmlns="http://www.w3.org/2000/svg">
<g clip-path="url(#clip0_33_31)">
<path d="M367.893 88.3672C354.691 80.7428 338.277 77.0217 321.831 76.5794V76.4346C318.591 76.4346 315.466 76.5311 312.432 76.7027C309.995 76.8233 307.594 77.0485 305.192 77.3113C304.624 77.3702 304.05 77.4265 303.49 77.4936C301.644 77.7214 299.818 77.9815 298.007 78.2925C295.844 78.6437 293.766 79.0538 291.74 79.5015C291.376 79.5847 290.998 79.649 290.633 79.7375C277.053 82.8714 266.629 88.0402 259.326 94.3215C259.283 94.359 259.245 94.3939 259.205 94.4287C257.498 95.9059 255.949 97.434 254.587 99.0211C254.131 99.5385 253.708 100.067 253.287 100.6C252.346 101.823 251.502 103.067 250.757 104.332C250.234 105.209 249.757 106.096 249.326 107.007C248.666 108.407 248.101 109.822 247.675 111.257C247.417 112.12 247.254 113.01 247.08 113.903C246.82 115.219 246.656 116.538 246.587 117.865C246.56 118.382 246.396 118.86 246.396 119.388C246.396 130.294 252.135 139.001 260.877 145.652C260.915 145.682 260.944 145.714 260.985 145.741C261.186 145.894 261.403 146.036 261.607 146.186C270.156 152.725 282.346 157.85 298.143 160.429C304.946 161.628 311.735 162.255 318.028 162.255C318.406 162.255 318.749 162.207 319.124 162.204C320.038 162.218 320.901 162.277 321.831 162.277V162.092C323.611 162.035 325.388 161.971 327.143 161.837C386.172 157.633 411.222 113.375 367.893 88.3672ZM288.462 87.1045H296.069V132.8H288.462V87.1045ZM278.012 146.886C301.378 136.079 334.651 135.913 358.346 146.475C334.975 157.269 301.7 157.43 278.012 146.886ZM366.872 141.902C359.708 136.663 341.976 131.808 321.831 131.361V84.1127C372.217 85.7587 401.546 119.208 366.872 141.902ZM367.893 88.3672C354.691 80.7428 338.277 77.0217 321.831 76.5794V76.4346C318.591 76.4346 315.466 76.5311 312.432 76.7027C309.995 76.8233 307.594 77.0485 305.192 77.3113C304.624 77.3702 304.05 77.4265 303.49 77.4936C301.644 77.7214 299.818 77.9815 298.007 78.2925C295.844 78.6437 293.766 79.0538 291.74 79.5015C291.376 79.5847 290.998 79.649 290.633 79.7375C277.053 82.8714 266.629 88.0402 259.326 94.3215C259.283 94.359 259.245 94.3939 259.205 94.4287C257.498 95.9059 255.949 97.434 254.587 99.0211C254.131 99.5385 253.708 100.067 253.287 100.6C252.346 101.823 251.502 103.067 250.757 104.332C250.234 105.209 249.757 106.096 249.326 107.007C248.666 108.407 248.101 109.822 247.675 111.257C247.417 112.12 247.254 113.01 247.08 113.903C246.82 115.219 246.656 116.538 246.587 117.865C246.56 118.382 246.396 118.86 246.396 119.388C246.396 130.294 252.135 139.001 260.877 145.652C260.915 145.682 260.944 145.714 260.985 145.741C261.186 145.894 261.403 146.036 261.607 146.186C270.156 152.725 282.346 157.85 298.143 160.429C304.946 161.628 311.735 162.255 318.028 162.255C318.406 162.255 318.749 162.207 319.124 162.204C320.038 162.218 320.901 162.277 321.831 162.277V162.092C323.611 162.035 325.388 161.971 327.143 161.837C386.172 157.633 411.222 113.375 367.893 88.3672ZM288.462 87.1045H296.069V132.8H288.462V87.1045ZM278.012 146.886C301.378 136.079 334.651 135.913 358.346 146.475C334.975 157.269 301.7 157.43 278.012 146.886ZM366.872 141.902C359.708 136.663 341.976 131.808 321.831 131.361V84.1127C372.217 85.7587 401.546 119.208 366.872 141.902ZM367.893 88.3672C354.691 80.7428 338.277 77.0217 321.831 76.5794V76.4346C318.591 76.4346 315.466 76.5311 312.432 76.7027C309.995 76.8233 307.594 77.0485 305.192 77.3113C304.624 77.3702 304.05 77.4265 303.49 77.4936C301.644 77.7214 299.818 77.9815 298.007 78.2925C295.844 78.6437 293.766 79.0538 291.74 79.5015C291.376 79.5847 290.998 79.649 290.633 79.7375C277.053 82.8714 266.629 88.0402 259.326 94.3215C259.283 94.359 259.245 94.3939 259.205 94.4287C257.498 95.9059 255.949 97.434 254.587 99.0211C254.131 99.5385 253.708 100.067 253.287 100.6C252.346 101.823 251.502 103.067 250.757 104.332C250.234 105.209 249.757 106.096 249.326 107.007C248.666 108.407 248.101 109.822 247.675 111.257C247.417 112.12 247.254 113.01 247.08 113.903C246.82 115.219 246.656 116.538 246.587 117.865C246.56 118.382 246.396 118.86 246.396 119.388C246.396 130.294 252.135 139.001 260.877 145.652C260.915 145.682 260.944 145.714 260.985 145.741C261.186 145.894 261.403 146.036 261.607 146.186C270.156 152.725 282.346 157.85 298.143 160.429C304.946 161.628 311.735 162.255 318.028 162.255C318.406 162.255 318.749 162.207 319.124 162.204C320.038 162.218 320.901 162.277 321.831 162.277V162.092C323.611 162.035 325.388 161.971 327.143 161.837C386.172 157.633 411.222 113.375 367.893 88.3672ZM288.462 87.1045H296.069V132.8H288.462V87.1045ZM278.012 146.886C301.378 136.079 334.651 135.913 358.346 146.475C334.975 157.269 301.7 157.43 278.012 146.886ZM366.872 141.902C359.708 136.663 341.976 131.808 321.831 131.361V84.1127C372.217 85.7587 401.546 119.208 366.872 141.902ZM367.893 88.3672C354.691 80.7428 338.277 77.0217 321.831 76.5794V76.4346C318.591 76.4346 315.466 76.5311 312.432 76.7027C309.995 76.8233 307.594 77.0485 305.192 77.3113C304.624 77.3702 304.05 77.4265 303.49 77.4936C301.644 77.7214 299.818 77.9815 298.007 78.2925C295.844 78.6437 293.766 79.0538 291.74 79.5015C291.376 79.5847 290.998 79.649 290.633 79.7375C277.053 82.8714 266.629 88.0402 259.326 94.3215C259.283 94.359 259.245 94.3939 259.205 94.4287C257.498 95.9059 255.949 97.434 254.587 99.0211C254.131 99.5385 253.708 100.067 253.287 100.6C252.346 101.823 251.502 103.067 250.757 104.332C250.234 105.209 249.757 106.096 249.326 107.007C248.666 108.407 248.101 109.822 247.675 111.257C247.417 112.12 247.254 113.01 247.08 113.903C246.82 115.219 246.656 116.538 246.587 117.865C246.56 118.382 246.396 118.86 246.396 119.388C246.396 130.294 252.135 139.001 260.877 145.652C260.915 145.682 260.944 145.714 260.985 145.741C261.186 145.894 261.403 146.036 261.607 146.186C270.156 152.725 282.346 157.85 298.143 160.429C304.946 161.628 311.735 162.255 318.028 162.255C318.406 162.255 318.749 162.207 319.124 162.204C320.038 162.218 320.901 162.277 321.831 162.277V162.092C323.611 162.035 325.388 161.971 327.143 161.837C386.172 157.633 411.222 113.375 367.893 88.3672ZM288.462 87.1045H296.069V132.8H288.462V87.1045ZM278.012 146.886C301.378 136.079 334.651 135.913 358.346 146.475C334.975 157.269 301.7 157.43 278.012 146.886ZM366.872 141.902C359.708 136.663 341.976 131.808 321.831 131.361V84.1127C372.217 85.7587 401.546 119.208 366.872 141.902ZM521.719 165.327C521.781 161.874 521.781 156.799 521.765 149.218C521.853 133.854 521.998 125.339 521.719 120.495C521.719 119.715 521.719 119.045 521.719 118.243C521.719 118.015 521.706 117.811 521.693 117.605C522.274 115.179 522.07 112.554 520.795 109.806L500.974 67.0917C496.925 58.3815 482.679 53.2825 468.525 55.4567C437.07 60.3305 455.831 60.5531 427.038 46.087C427.164 38.7655 427.158 33.6397 426.609 30.3046C428.062 21.136 418.005 13.7502 406.349 11.9433L332.378 0.498559C318.229 -1.67028 303.975 3.41804 299.928 12.1336C291.336 30.6558 302.456 18.3157 256.337 29.1224C244.662 22.3746 225.359 8.34015 204.555 20.3612C150.996 51.2852 141.704 53.4621 141.704 64.3948C141.704 64.9417 141.825 65.4028 141.881 65.9068C141.106 71.2846 141.313 82.5444 141.131 106.182C139.195 106.447 137.086 106.747 134.543 107.139C122.624 108.986 112.573 116.517 114.387 125.865C114.229 131.929 114.395 144.84 114.401 173.528C106.805 176.383 108.314 175.214 94.4089 167.183C83.0608 160.604 74.1115 168.989 47.2933 184.472C45.3179 185.611 44.0421 187.118 43.3185 188.74C43.2622 188.836 43.2113 188.954 43.1657 189.075C42.7422 190.16 42.6029 191.278 42.7288 192.396C42.5975 195.981 42.7583 202.825 42.8119 216.669C30.7858 214.476 15.8676 211.093 11.5739 220.347C3.82005 237.054 -1.11156 245.25 0.34648 249.968C0.180306 254.606 0.207109 263.737 0.258033 281.737C-0.0930763 283.01 -0.0823555 284.305 0.268754 285.549C0.306277 298.412 0.34916 315.382 0.34916 337.783C-0.465627 340.84 0.0811375 340.791 11.8634 366.185C14.5034 371.857 20.5848 372.686 28.2449 371.973C28.3923 371.965 28.5156 372.032 28.6684 372.013C30.1211 371.785 31.4344 371.6 32.7102 371.423C32.9648 371.386 33.2248 371.351 33.4821 371.313C37.6257 370.748 40.8125 370.388 43.3051 369.989C41.2815 398.403 43.7098 399.816 45.6798 400.945C65.6796 412.5 74.8861 418.872 81.584 420.952V421.397C82.3023 421.432 82.9563 421.464 83.5674 421.494C85.4677 421.861 87.2178 421.805 89.035 421.411C91.734 421.009 94.1676 419.775 99.4611 416.668C102.157 415.108 105.266 413.24 109.123 411.014C124.685 417.188 127.67 416.197 128.137 419.073V428.494C126.834 432.834 129.782 438.263 138.021 439.536C193.095 448.062 189.286 451.179 199.334 429.531C234.4 431.086 225.852 424.816 232.832 439.853C237.994 451.005 258.639 444.292 289.349 439.536C298.679 438.099 299.658 433.394 299.609 425.542C299.617 423.169 299.518 420.47 299.499 417.483C306.444 415.376 312.614 413.24 318.245 411.009C345.926 426.998 337.422 426.518 381.702 400.945C383.262 400.047 384.985 399.039 384.918 383.072C384.915 379.503 384.819 375.144 384.607 369.828C398.309 371.949 411.284 375.292 415.516 366.174C424.813 346.126 427.108 348.614 427.33 325.307C427.451 314.891 427.124 299.114 426.829 273.431C428.466 272.785 430.112 272.045 431.771 271.086C463.521 252.748 479.543 245.695 487.52 238.676C493.242 234.886 492.768 233.996 493.135 231.13C493.735 229.671 494.18 228.1 494.483 226.347C494.512 226.275 494.534 226.216 494.566 226.143V225.827C495.799 217.846 494.566 206.208 494.566 185.431C498.675 184.793 510.13 184.094 517.131 177.761C518.575 176.584 519.733 175.223 520.561 173.665C520.921 173.137 521.178 172.587 521.36 171.501C521.869 169.735 522.121 167.826 521.717 165.574C521.717 165.486 521.717 165.413 521.717 165.327H521.719ZM149.177 76.2657C152.765 78.7536 157.493 81.2575 163.328 84.6301C151.163 103.514 159.418 103.699 148.868 105.15C148.941 98.19 149.026 88.8578 149.177 76.2657ZM122.045 143.502L135.092 171.622C136.743 175.182 140.152 178.094 144.508 180.198V223.838C143.511 222.988 142.688 222.095 142.254 221.154L122.428 178.434C121.913 177.324 122.012 179.386 122.045 143.502ZM22.9354 364.646C20.6599 364.568 19.2769 364.094 18.7569 362.981C7.36062 338.73 7.24269 349.657 7.68761 301.884L11.5739 310.259C13.2196 313.814 17.7786 316.092 22.9917 316.395C22.5226 324.009 22.9113 336.416 22.9354 364.646ZM81.5894 412.762C76.371 410.4 67.7594 404.923 50.5149 394.961C49.4428 388.9 51.1528 366.919 51.6513 360.753C51.5602 360.767 51.4878 360.78 51.394 360.796C51.3511 357.796 51.0214 353.788 50.7186 348.199C55.7922 351.271 63.9642 355.759 77.2367 363.423C78.7001 364.27 80.1394 364.809 81.5652 365.169C81.7957 371.814 81.6215 383.693 81.5894 412.762ZM128.185 371.584C127.343 373.402 127.33 375.466 128.137 377.385V409.518C120.034 406.875 115.505 404.918 112.492 403.907C112.514 377.037 112.707 364.506 112.492 356.45C118.871 358.871 125.419 361.115 132.152 363.032L128.185 371.584ZM175.582 437.654C119.836 429.017 139.89 431.893 135.818 427.572V383.163C136.443 383.329 137.038 383.514 137.735 383.624C154.285 386.184 166.566 388.712 175.582 389.61V437.654ZM244.657 437.893H237.048V391.551H244.657V437.893ZM342.372 413.819H334.763V367.477H342.372V413.819ZM408.308 364.632H400.705V318.291H408.308V364.632ZM408.333 307.055C407.968 307.838 404.862 309.385 400.785 308.763C373.208 304.497 377.304 304.35 375.379 306.771C368.443 315.468 361.603 320.926 354.9 326.39C364.104 331.703 375.709 338.813 376.54 338.901C375.838 339.746 367.995 344.003 345.755 356.842C339.743 360.33 335.085 356.201 318.537 346.641C304.249 352.515 295.822 354.893 283.952 358.053L291.724 374.399C290.893 376.104 287.996 376.09 246.991 382.442C242.874 383.08 239.798 381.514 239.436 380.739L232.489 365.75C185.129 368.294 197.501 358.89 187.362 380.731C185.703 384.286 177.493 382.082 138.901 376.107C136.258 375.694 135.183 374.699 135.081 374.782L142.846 358.045C97.6627 346.081 116.778 341.727 90.6056 356.842C84.1463 360.59 79.1959 355.775 51.0858 339.547C49.6358 338.708 48.1402 340.108 71.8923 326.395C63.1039 319.232 58.3411 315.433 50.0539 305.044C28.5103 308.377 20.0032 310.369 18.4728 307.06L7.50267 283.812C7.61256 283.57 8.63909 282.52 11.3247 282.109C40.8875 277.525 37.2344 279.635 36.3955 274.359C32.0455 246.947 49.4133 254.405 11.3166 248.496C8.66857 248.084 7.6206 247.035 7.50803 247.172L18.4728 223.548C21.2013 217.605 47.7408 228.46 51.4288 223.835C58.3545 215.136 65.2346 209.653 71.9057 204.216C63.7954 199.533 51.0911 191.702 50.2629 191.702C50.9652 190.857 58.8048 186.603 81.0426 173.761C87.0758 170.26 91.8707 174.493 108.26 183.965C110.831 182.909 113.157 182 115.398 181.147C117.03 185.169 121.753 195.032 135.355 224.355C136.976 227.843 140.278 230.711 144.508 232.803V232.955C145.046 233.164 145.505 233.282 146.025 233.47C148.732 234.628 151.744 235.465 154.968 235.947C155.052 235.961 155.132 235.971 155.215 235.985C156.413 236.156 157.625 236.285 158.868 236.355C159.67 236.406 160.49 236.424 161.296 236.43C161.942 236.43 162.58 236.432 163.232 236.403C168.343 236.213 173.797 235.25 181.06 234.009C173.993 236.537 168.23 239.792 163.776 243.526C163.387 243.845 163.031 244.178 162.661 244.505C161.645 245.419 160.71 246.357 159.844 247.32C158.983 248.261 158.222 249.242 157.493 250.247C157.019 250.912 156.544 251.579 156.137 252.258C155.639 253.083 155.18 253.917 154.776 254.778C154.202 256 153.714 257.233 153.344 258.48C153.159 259.126 153.039 259.794 152.905 260.456C152.621 261.829 152.436 263.204 152.395 264.587C152.387 264.842 152.302 265.07 152.302 265.324C152.302 266.247 152.446 267.11 152.538 267.997C152.57 268.276 152.57 268.558 152.613 268.839C153.778 277.303 159.077 284.066 166.571 289.232C168.276 290.447 170.106 291.608 172.117 292.688C176.751 296.096 186.164 299.224 197.721 300.806C203.084 301.685 208.417 302.128 213.4 302.128C213.773 302.128 214.11 302.079 214.483 302.077C215.399 302.093 216.265 302.149 217.201 302.149V301.951C238.723 301.205 255.217 294.439 264.866 285.115C282.276 287.981 294.991 290.056 304.557 290.887C305.318 290.956 306.069 291.021 306.835 291.066C318.017 291.836 324.653 290.645 329.673 286.624C332.563 284.814 334.937 282.461 336.398 279.316C337.333 277.297 338.009 275.702 338.574 274.348C339.36 272.817 340.164 271.158 340.995 269.383C341.496 268.775 342.08 268.415 342.906 268.177C347.248 267.804 350.97 267.405 354.272 267C354.747 266.946 355.248 266.885 355.76 266.82C356.537 266.721 357.298 266.622 358.022 266.523C359.025 266.386 360.089 266.225 361.22 266.048C362.273 265.885 363.259 265.727 364.181 265.568C364.865 265.45 365.564 265.324 366.291 265.193C367.025 265.056 367.708 264.925 368.36 264.794C371.22 264.247 374.377 263.59 377.915 262.786C379.215 262.635 380.257 262.743 381.482 263.212C384.304 264.885 387.51 266.844 391.032 268.74C390.051 281.217 384.881 277.362 415.483 282.109C418.131 282.52 419.209 283.565 419.295 283.434L408.333 307.055ZM28.4004 271.769L10.1641 274.592C9.33862 274.718 8.61497 274.925 7.89399 275.134C7.92615 269.072 7.94759 262.405 7.95563 255.118C12.4772 256.381 19.1214 257.4 28.4004 258.834C27.9742 263.139 27.9742 267.464 28.4004 271.769ZM50.4613 213.428V200.611L58.6574 205.348C55.685 207.978 53.0048 210.688 50.4613 213.428ZM209.704 213.085V236.947C200.254 231.915 196.381 228.717 193.891 226.905C194.038 219.406 193.923 206.152 193.818 183.683C197.155 186.08 202.81 189.852 214.871 195.455L210.441 204.999C209.117 207.852 209.004 210.57 209.704 213.085ZM195.443 238.057V276.659H187.833V238.057H195.443ZM245.992 288.219C226.879 296.551 200.425 296.688 181.058 288.544C200.168 280.195 226.63 280.064 245.992 288.219ZM217.201 274.879V274.828C217.23 274.844 217.257 274.863 217.284 274.879H217.201ZM217.356 242.381V222.261C220.848 224.454 225.134 226.063 229.712 226.771C273.434 233.537 291.973 236.473 300.601 237.746V282.742C230.042 271.901 219.688 271.989 217.356 264.04V252.156C217.407 246.867 217.461 243.985 217.356 242.381ZM254.893 283.479C254.742 283.581 254.59 283.683 254.437 283.788C254.201 283.627 254.059 283.461 253.802 283.3C254.174 283.361 254.523 283.418 254.893 283.479ZM336.484 259.566V217.409H344.09V259.566H336.484ZM419.866 266.635H412.262V224.481H419.866V266.635ZM495.552 168.33H487.949V132.8H495.552V168.33ZM513.756 117.026C509.902 124.219 495.373 124.833 475.236 127.95C466.654 166.365 447.708 148.411 481.856 168.132C496.137 176.389 481.942 180.453 427.708 211.774C419.855 216.307 406.558 216.307 398.694 211.774C368.974 194.611 394.776 203.978 336.221 208.334L329.237 223.385C326.966 228.272 316.396 232.489 304.846 230.701C204.877 215.229 211.151 221.54 225.008 191.662C211.242 185.579 202.802 181.292 190.514 172.003C176.606 174.156 147.901 181.196 141.991 168.424C116.36 113.184 108.745 118.833 160.827 110.766C169.393 72.349 188.375 90.3162 154.21 70.5876C147.818 66.8987 147.582 62.0436 154.202 58.2153L208.356 26.9455C216.22 22.3987 229.519 22.4041 237.369 26.9455C267.071 44.1031 241.226 34.7442 299.843 30.3851L306.825 15.3346C309.1 10.4393 319.684 6.22761 331.212 8.01576C431.198 23.4871 424.91 17.1763 411.056 47.0494C424.902 53.1672 433.358 57.4968 445.545 66.7084C459.353 64.5717 488.16 57.5505 494.073 70.29C515.641 116.774 515.247 114.254 513.756 117.026ZM367.893 88.3672C354.691 80.7428 338.277 77.0217 321.831 76.5794V76.4346C318.591 76.4346 315.466 76.5311 312.432 76.7027C309.995 76.8233 307.594 77.0485 305.192 77.3113C304.624 77.3702 304.05 77.4265 303.49 77.4936C301.644 77.7214 299.818 77.9815 298.007 78.2925C295.844 78.6437 293.766 79.0538 291.74 79.5015C291.376 79.5847 290.998 79.649 290.633 79.7375C277.053 82.8714 266.629 88.0402 259.326 94.3215C259.283 94.359 259.245 94.3939 259.205 94.4287C257.498 95.9059 255.949 97.434 254.587 99.0211C254.131 99.5385 253.708 100.067 253.287 100.6C252.346 101.823 251.502 103.067 250.757 104.332C250.234 105.209 249.757 106.096 249.326 107.007C248.666 108.407 248.101 109.822 247.675 111.257C247.417 112.12 247.254 113.01 247.08 113.903C246.82 115.219 246.656 116.538 246.587 117.865C246.56 118.382 246.396 118.86 246.396 119.388C246.396 130.294 252.135 139.001 260.877 145.652C260.915 145.682 260.944 145.714 260.985 145.741C261.186 145.894 261.403 146.036 261.607 146.186C270.156 152.725 282.346 157.85 298.143 160.429C304.946 161.628 311.735 162.255 318.028 162.255C318.406 162.255 318.749 162.207 319.124 162.204C320.038 162.218 320.901 162.277 321.831 162.277V162.092C323.611 162.035 325.388 161.971 327.143 161.837C386.172 157.633 411.222 113.375 367.893 88.3672ZM288.462 87.1045H296.069V132.8H288.462V87.1045ZM278.012 146.886C301.378 136.079 334.651 135.913 358.346 146.475C334.975 157.269 301.7 157.43 278.012 146.886ZM366.872 141.902C359.708 136.663 341.976 131.808 321.831 131.361V84.1127C372.217 85.7587 401.546 119.208 366.872 141.902ZM367.893 88.3672C354.691 80.7428 338.277 77.0217 321.831 76.5794V76.4346C318.591 76.4346 315.466 76.5311 312.432 76.7027C309.995 76.8233 307.594 77.0485 305.192 77.3113C304.624 77.3702 304.05 77.4265 303.49 77.4936C301.644 77.7214 299.818 77.9815 298.007 78.2925C295.844 78.6437 293.766 79.0538 291.74 79.5015C291.376 79.5847 290.998 79.649 290.633 79.7375C277.053 82.8714 266.629 88.0402 259.326 94.3215C259.283 94.359 259.245 94.3939 259.205 94.4287C257.498 95.9059 255.949 97.434 254.587 99.0211C254.131 99.5385 253.708 100.067 253.287 100.6C252.346 101.823 251.502 103.067 250.757 104.332C250.234 105.209 249.757 106.096 249.326 107.007C248.666 108.407 248.101 109.822 247.675 111.257C247.417 112.12 247.254 113.01 247.08 113.903C246.82 115.219 246.656 116.538 246.587 117.865C246.56 118.382 246.396 118.86 246.396 119.388C246.396 130.294 252.135 139.001 260.877 145.652C260.915 145.682 260.944 145.714 260.985 145.741C261.186 145.894 261.403 146.036 261.607 146.186C270.156 152.725 282.346 157.85 298.143 160.429C304.946 161.628 311.735 162.255 318.028 162.255C318.406 162.255 318.749 162.207 319.124 162.204C320.038 162.218 320.901 162.277 321.831 162.277V162.092C323.611 162.035 325.388 161.971 327.143 161.837C386.172 157.633 411.222 113.375 367.893 88.3672ZM288.462 87.1045H296.069V132.8H288.462V87.1045ZM278.012 146.886C301.378 136.079 334.651 135.913 358.346 146.475C334.975 157.269 301.7 157.43 278.012 146.886ZM366.872 141.902C359.708 136.663 341.976 131.808 321.831 131.361V84.1127C372.217 85.7587 401.546 119.208 366.872 141.902ZM367.893 88.3672C354.691 80.7428 338.277 77.0217 321.831 76.5794V76.4346C318.591 76.4346 315.466 76.5311 312.432 76.7027C309.995 76.8233 307.594 77.0485 305.192 77.3113C304.624 77.3702 304.05 77.4265 303.49 77.4936C301.644 77.7214 299.818 77.9815 298.007 78.2925C295.844 78.6437 293.766 79.0538 291.74 79.5015C291.376 79.5847 290.998 79.649 290.633 79.7375C277.053 82.8714 266.629 88.0402 259.326 94.3215C259.283 94.359 259.245 94.3939 259.205 94.4287C257.498 95.9059 255.949 97.434 254.587 99.0211C254.131 99.5385 253.708 100.067 253.287 100.6C252.346 101.823 251.502 103.067 250.757 104.332C250.234 105.209 249.757 106.096 249.326 107.007C248.666 108.407 248.101 109.822 247.675 111.257C247.417 112.12 247.254 113.01 247.08 113.903C246.82 115.219 246.656 116.538 246.587 117.865C246.56 118.382 246.396 118.86 246.396 119.388C246.396 130.294 252.135 139.001 260.877 145.652C260.915 145.682 260.944 145.714 260.985 145.741C261.186 145.894 261.403 146.036 261.607 146.186C270.156 152.725 282.346 157.85 298.143 160.429C304.946 161.628 311.735 162.255 318.028 162.255C318.406 162.255 318.749 162.207 319.124 162.204C320.038 162.218 320.901 162.277 321.831 162.277V162.092C323.611 162.035 325.388 161.971 327.143 161.837C386.172 157.633 411.222 113.375 367.893 88.3672ZM288.462 87.1045H296.069V132.8H288.462V87.1045ZM278.012 146.886C301.378 136.079 334.651 135.913 358.346 146.475C334.975 157.269 301.7 157.43 278.012 146.886ZM366.872 141.902C359.708 136.663 341.976 131.808 321.831 131.361V84.1127C372.217 85.7587 401.546 119.208 366.872 141.902ZM367.893 88.3672C354.691 80.7428 338.277 77.0217 321.831 76.5794V76.4346C318.591 76.4346 315.466 76.5311 312.432 76.7027C309.995 76.8233 307.594 77.0485 305.192 77.3113C304.624 77.3702 304.05 77.4265 303.49 77.4936C301.644 77.7214 299.818 77.9815 298.007 78.2925C295.844 78.6437 293.766 79.0538 291.74 79.5015C291.376 79.5847 290.998 79.649 290.633 79.7375C277.053 82.8714 266.629 88.0402 259.326 94.3215C259.283 94.359 259.245 94.3939 259.205 94.4287C257.498 95.9059 255.949 97.434 254.587 99.0211C254.131 99.5385 253.708 100.067 253.287 100.6C252.346 101.823 251.502 103.067 250.757 104.332C250.234 105.209 249.757 106.096 249.326 107.007C248.666 108.407 248.101 109.822 247.675 111.257C247.417 112.12 247.254 113.01 247.08 113.903C246.82 115.219 246.656 116.538 246.587 117.865C246.56 118.382 246.396 118.86 246.396 119.388C246.396 130.294 252.135 139.001 260.877 145.652C260.915 145.682 260.944 145.714 260.985 145.741C261.186 145.894 261.403 146.036 261.607 146.186C270.156 152.725 282.346 157.85 298.143 160.429C304.946 161.628 311.735 162.255 318.028 162.255C318.406 162.255 318.749 162.207 319.124 162.204C320.038 162.218 320.901 162.277 321.831 162.277V162.092C323.611 162.035 325.388 161.971 327.143 161.837C386.172 157.633 411.222 113.375 367.893 88.3672ZM288.462 87.1045H296.069V132.8H288.462V87.1045ZM278.012 146.886C301.378 136.079 334.651 135.913 358.346 146.475C334.975 157.269 301.7 157.43 278.012 146.886ZM366.872 141.902C359.708 136.663 341.976 131.808 321.831 131.361V84.1127C372.217 85.7587 401.546 119.208 366.872 141.902ZM367.893 88.3672C354.691 80.7428 338.277 77.0217 321.831 76.5794V76.4346C318.591 76.4346 315.466 76.5311 312.432 76.7027C309.995 76.8233 307.594 77.0485 305.192 77.3113C304.624 77.3702 304.05 77.4265 303.49 77.4936C301.644 77.7214 299.818 77.9815 298.007 78.2925C295.844 78.6437 293.766 79.0538 291.74 79.5015C291.376 79.5847 290.998 79.649 290.633 79.7375C277.053 82.8714 266.629 88.0402 259.326 94.3215C259.283 94.359 259.245 94.3939 259.205 94.4287C257.498 95.9059 255.949 97.434 254.587 99.0211C254.131 99.5385 253.708 100.067 253.287 100.6C252.346 101.823 251.502 103.067 250.757 104.332C250.234 105.209 249.757 106.096 249.326 107.007C248.666 108.407 248.101 109.822 247.675 111.257C247.417 112.12 247.254 113.01 247.08 113.903C246.82 115.219 246.656 116.538 246.587 117.865C246.56 118.382 246.396 118.86 246.396 119.388C246.396 130.294 252.135 139.001 260.877 145.652C260.915 145.682 260.944 145.714 260.985 145.741C261.186 145.894 261.403 146.036 261.607 146.186C270.156 152.725 282.346 157.85 298.143 160.429C304.946 161.628 311.735 162.255 318.028 162.255C318.406 162.255 318.749 162.207 319.124 162.204C320.038 162.218 320.901 162.277 321.831 162.277V162.092C323.611 162.035 325.388 161.971 327.143 161.837C386.172 157.633 411.222 113.375 367.893 88.3672ZM288.462 87.1045H296.069V132.8H288.462V87.1045ZM278.012 146.886C301.378 136.079 334.651 135.913 358.346 146.475C334.975 157.269 301.7 157.43 278.012 146.886ZM366.872 141.902C359.708 136.663 341.976 131.808 321.831 131.361V84.1127C372.217 85.7587 401.546 119.208 366.872 141.902Z" fill="white"/>
<path d="M237.047 391.551V437.893H244.656V391.551H237.047ZM132.151 363.032C125.418 361.115 118.871 358.871 112.492 356.45C112.706 364.506 112.513 377.037 112.492 403.907C115.504 404.918 120.034 406.875 128.136 409.519V377.385C127.329 375.466 127.343 373.402 128.184 371.584L132.151 363.032ZM400.704 318.291V364.632H408.308V318.291H400.704ZM334.762 367.477V413.819H342.372V367.477H334.762ZM137.734 383.624C137.037 383.514 136.442 383.329 135.818 383.163V427.572C139.889 431.893 119.835 429.017 175.581 437.654V389.61C166.565 388.712 154.284 386.184 137.734 383.624ZM135.091 171.622L122.044 143.502C122.012 179.386 121.913 177.324 122.427 178.434L142.253 221.154C142.687 222.095 143.51 222.988 144.507 223.838V180.198C140.151 178.094 136.742 175.182 135.091 171.622ZM81.5645 365.169C80.1386 364.809 78.6994 364.271 77.236 363.423C63.9635 355.759 55.7915 351.271 50.7178 348.199C51.0207 353.788 51.3504 357.796 51.3933 360.796C51.4871 360.78 51.5594 360.767 51.6506 360.753C51.152 366.919 49.4421 388.9 50.5141 394.961C67.7587 404.923 76.3702 410.401 81.5886 412.762C81.6208 383.694 81.795 371.815 81.5645 365.169ZM149.176 76.2658C149.026 88.8579 148.94 98.1901 148.868 105.15C159.417 103.699 151.162 103.514 163.327 84.6302C157.493 81.2576 152.765 78.7537 149.176 76.2658ZM22.9909 316.395C17.7779 316.092 13.2189 313.814 11.5732 310.259L7.68688 301.884C7.24197 349.657 7.3599 338.73 18.7562 362.981C19.2762 364.094 20.6592 364.568 22.9347 364.646C22.9105 336.416 22.5219 324.009 22.9909 316.395ZM288.462 87.1046V132.8H296.068V87.1046H288.462ZM412.261 224.481V266.635H419.865V224.481H412.261ZM336.483 217.409V259.566H344.09V217.409H336.483ZM253.801 283.3C254.058 283.461 254.2 283.627 254.436 283.788C254.589 283.683 254.742 283.581 254.892 283.479C254.522 283.418 254.173 283.361 253.801 283.3ZM487.948 132.8V168.33H495.552V132.8H487.948ZM28.3996 258.834C19.1207 257.4 12.4764 256.381 7.9549 255.118C7.94686 262.405 7.92542 269.072 7.89326 275.134C8.61424 274.925 9.3379 274.718 10.1634 274.592L28.3996 271.769C27.9735 267.464 27.9735 263.14 28.3996 258.834ZM321.83 84.1128V131.361C341.975 131.808 359.707 136.663 366.871 141.902C401.545 119.208 372.216 85.7588 321.83 84.1128ZM217.2 274.828V274.879H217.283C217.256 274.863 217.229 274.844 217.2 274.828ZM229.711 226.771C225.133 226.063 220.848 224.454 217.355 222.261V242.381C217.46 243.985 217.406 246.867 217.355 252.156V264.04C219.687 271.989 230.041 271.901 300.6 282.742V237.746C291.973 236.473 273.434 233.537 229.711 226.771ZM187.833 238.057V276.659H195.442V238.057H187.833ZM50.4605 200.611V213.428C53.0041 210.688 55.6843 207.978 58.6567 205.348L50.4605 200.611ZM214.871 195.455C202.81 189.852 197.154 186.08 193.818 183.683C193.922 206.152 194.037 219.406 193.89 226.905C196.38 228.717 200.253 231.915 209.703 236.947V213.085C209.004 210.57 209.116 207.852 210.44 204.999L214.871 195.455Z" fill="#E2C366"/>
</g>
<defs>
<clipPath id="clip0_33_31">
<rect width="522" height="446" fill="white"/>
</clipPath>
</defs>
</svg>
