<svg width="225" height="98" viewBox="0 0 225 98" fill="none" xmlns="http://www.w3.org/2000/svg">
<g clip-path="url(#clip0_2_97)">
<path d="M119.252 0.0642293V9.68558C87.811 9.10176 56.3112 12.593 25.5578 20.171V95.4896C22.3391 96.2836 19.1319 97.1184 15.9306 98V22.6814C10.5952 24.1526 5.283 25.7465 0.00582886 27.4629V17.8415C38.7245 5.24271 79.0351 -0.68306 119.252 0.0642293Z" fill="url(#paint0_linear_2_97)"/>
<path d="M64.0433 75.0442C64.0433 84.5371 59.3318 89.8265 49.9728 91.4612C40.6371 93.1134 36.0131 89.4529 36.0072 79.9366V38.5496C36.0072 29.0976 40.6371 23.2711 49.9728 21.6189C59.3318 20.0075 64.0433 24.2052 64.0433 33.6572V75.0442ZM54.2528 35.1051C54.2528 32.0692 52.8359 30.7615 50.0078 31.2344C49.9845 31.2344 49.9611 31.2402 49.9378 31.246C47.133 31.7365 45.7336 33.5346 45.7336 36.5938V77.9808C45.7336 81.04 47.1447 82.2952 49.9728 81.8048C52.8242 81.3086 54.2528 79.5571 54.2528 76.4979V35.1051Z" fill="url(#paint1_linear_2_97)"/>
<path d="M72.5393 19.4704C75.8164 19.1084 79.0935 18.7932 82.3764 18.5188V86.1893C79.0935 86.4637 75.8164 86.779 72.5393 87.141V19.4704Z" fill="url(#paint2_linear_2_97)"/>
<path d="M109.38 37.2536V30.4579C109.38 27.4045 107.94 25.8749 105.054 25.9333C102.196 25.9917 100.762 27.5797 100.762 30.6331V31.8766C100.762 35.1518 103.841 38.8299 110.004 43.1443C116.168 47.4587 119.247 52.8416 119.247 59.0651V71.8974C119.247 81.3904 114.523 85.95 105.083 86.1193C95.6189 86.3353 90.8957 81.9683 90.8957 72.4754V63.3678C94.1844 63.1752 97.4673 63.0234 100.756 62.9183V72.0259C100.756 75.0617 102.185 76.5388 105.048 76.4979C105.071 76.4979 105.094 76.4979 105.118 76.4979C107.952 76.4396 109.375 74.9099 109.375 71.8507V59.2285C109.375 56.2277 106.29 52.5205 100.132 48.352C93.9745 44.2244 90.8957 39.2386 90.8957 33.161V31.0943C90.8957 21.6189 95.6072 16.4988 105.048 16.2828C114.512 16.131 119.247 21.0642 119.247 30.5163V37.312C115.958 37.2536 112.663 37.2361 109.375 37.2594" fill="url(#paint3_linear_2_97)"/>
<path d="M128.407 0.350281C133.265 0.560456 138.116 0.875719 142.968 1.27855C152.128 2.09006 156.688 7.47288 156.688 16.9074V18.0809C156.688 22.5238 154.898 25.4253 151.306 26.8791C154.898 29.1092 156.688 32.4779 156.688 36.9149V73.392C156.688 82.8849 152.332 87.0183 143.592 86.2769C138.536 85.8449 133.475 85.5179 128.407 85.2902V0.350281ZM141.364 21.1226C142.734 21.2335 143.673 21.2102 144.181 21.0467C145.965 20.5154 146.857 19.1726 146.857 17.0125V15.839C146.857 12.7856 145.434 11.1101 142.577 10.8707C141.137 10.754 139.702 10.643 138.262 10.5379V20.8832C139.294 20.9591 140.326 21.035 141.358 21.1168M142.577 76.5621C145.428 76.8015 146.857 75.4062 146.857 72.3178V35.8407C146.857 33.6806 145.965 32.1568 144.181 31.2869C143.667 31.0592 142.729 30.8841 141.364 30.7731C140.332 30.6914 139.3 30.6155 138.268 30.5396V76.2293C139.708 76.3286 141.143 76.4395 142.583 76.5621" fill="#F0F0F0"/>
<path d="M164.654 21.0292C173.12 22.2552 181.558 23.7848 189.943 25.6122V35.2335C184.789 34.1126 179.622 33.1026 174.432 32.2035V42.5838C178.893 43.3545 183.342 44.2127 187.78 45.1468V54.8032C183.342 53.8632 178.893 53.0109 174.432 52.2402V80.6255C179.616 81.5188 184.789 82.5288 189.943 83.6555V93.2769C181.558 91.4495 173.12 89.9199 164.654 88.6939V21.0292Z" fill="#F0F0F0"/>
<path d="M225 17.8415V27.4629C219.717 25.7465 214.411 24.1526 209.075 22.6814V98C205.874 97.1184 202.667 96.2836 199.448 95.4896V20.171C187.943 17.3394 176.333 15.0742 164.659 13.3811V3.7598C185.039 6.71392 205.227 11.4078 225 17.8415Z" fill="#F0F0F0"/>
</g>
<defs>
<linearGradient id="paint0_linear_2_97" x1="83.3618" y1="135.867" x2="31.7994" y2="-128.756" gradientUnits="userSpaceOnUse">
<stop stop-color="#B07F2C"/>
<stop offset="0.15" stop-color="#B07F2C"/>
<stop offset="0.46" stop-color="#E0C164"/>
<stop offset="0.61" stop-color="#F6DE7D"/>
<stop offset="0.72" stop-color="#FFF2A4"/>
<stop offset="0.84" stop-color="#F6DE7D"/>
<stop offset="1" stop-color="#B07F2C"/>
</linearGradient>
<linearGradient id="paint1_linear_2_97" x1="66.0492" y1="139.241" x2="14.4868" y2="-125.387" gradientUnits="userSpaceOnUse">
<stop stop-color="#B07F2C"/>
<stop offset="0.15" stop-color="#B07F2C"/>
<stop offset="0.46" stop-color="#E0C164"/>
<stop offset="0.61" stop-color="#F6DE7D"/>
<stop offset="0.72" stop-color="#FFF2A4"/>
<stop offset="0.84" stop-color="#F6DE7D"/>
<stop offset="1" stop-color="#B07F2C"/>
</linearGradient>
<linearGradient id="paint2_linear_2_97" x1="93.2223" y1="133.946" x2="41.6657" y2="-130.682" gradientUnits="userSpaceOnUse">
<stop stop-color="#B07F2C"/>
<stop offset="0.15" stop-color="#B07F2C"/>
<stop offset="0.46" stop-color="#E0C164"/>
<stop offset="0.61" stop-color="#F6DE7D"/>
<stop offset="0.72" stop-color="#FFF2A4"/>
<stop offset="0.84" stop-color="#F6DE7D"/>
<stop offset="1" stop-color="#B07F2C"/>
</linearGradient>
<linearGradient id="paint3_linear_2_97" x1="120.092" y1="128.709" x2="68.5297" y2="-135.913" gradientUnits="userSpaceOnUse">
<stop stop-color="#B07F2C"/>
<stop offset="0.15" stop-color="#B07F2C"/>
<stop offset="0.46" stop-color="#E0C164"/>
<stop offset="0.61" stop-color="#F6DE7D"/>
<stop offset="0.72" stop-color="#FFF2A4"/>
<stop offset="0.84" stop-color="#F6DE7D"/>
<stop offset="1" stop-color="#B07F2C"/>
</linearGradient>
<clipPath id="clip0_2_97">
<rect width="225" height="98" fill="white"/>
</clipPath>
</defs>
</svg>
