<svg width="376" height="477" viewBox="0 0 376 477" fill="none" xmlns="http://www.w3.org/2000/svg">
<g clip-path="url(#clip0_24_124)">
<path d="M144.73 373.875C142.5 373.875 140.292 373.591 138.15 373.025C127.417 370.169 120.335 360.535 114.105 352.034C110.673 346.519 106.214 341.68 100.989 337.8C94.8907 335.14 88.3548 333.68 81.7096 333.44C70.8237 332.219 59.5225 330.977 51.8281 323.26C44.1336 315.544 42.8658 304.34 41.6198 293.463C41.4012 286.836 39.9148 280.319 37.2698 274.237C33.357 269.028 28.5262 264.581 22.9958 261.159C14.4707 254.946 4.80893 247.884 1.94537 237.181C-0.808884 226.914 3.67225 216.67 8.02223 206.752C11.1918 200.757 13.2247 194.196 13.9898 187.461C13.2247 180.725 11.1918 174.164 8.02223 168.17C3.67225 158.273 -0.830743 148.028 1.94537 137.762C4.80893 127.059 14.4707 119.997 22.9958 113.784C28.5262 110.34 33.3789 105.915 37.2698 100.706C39.9148 94.624 41.4012 88.1065 41.6198 81.48C42.8439 70.6247 44.0899 59.3771 51.8281 51.6825C59.5444 43.9879 70.8237 42.7454 81.7096 41.5029C88.3548 41.2849 94.8907 39.8027 100.989 37.1434C106.214 33.2634 110.673 28.4243 114.127 22.9094C120.357 14.4083 127.439 4.77372 138.172 1.91822C148.468 -0.8283 158.741 3.64024 168.687 7.97799C174.699 11.1605 181.256 13.2094 188.033 13.9942C194.787 13.2312 201.367 11.2041 207.378 8.04338C217.302 3.70563 227.598 -0.784705 237.872 1.98361C248.605 4.83911 255.687 14.4737 261.917 23.0184C265.371 28.5333 269.808 33.3724 275.032 37.2524C281.131 39.8899 287.667 41.3721 294.312 41.5901C305.198 42.8108 316.499 44.0532 324.194 51.7696C331.888 59.486 333.156 70.6901 334.402 81.5672C334.642 88.1937 336.107 94.7112 338.752 100.793C342.665 106.002 347.496 110.427 353.026 113.871C361.551 120.106 371.213 127.146 374.076 137.849C376.831 148.116 372.349 158.361 367.999 168.279C364.83 174.273 362.797 180.812 362.032 187.57C362.797 194.305 364.83 200.866 367.999 206.861C372.349 216.757 376.852 227.002 374.076 237.268C371.213 247.971 361.551 255.034 353.026 261.246C347.496 264.69 342.643 269.115 338.752 274.325C336.107 280.406 334.62 286.924 334.402 293.55C333.178 304.405 331.932 315.653 324.194 323.348C316.455 331.042 305.198 332.285 294.312 333.527C287.667 333.745 281.131 335.227 275.032 337.865C269.808 341.745 265.349 346.584 261.895 352.099C255.665 360.6 248.583 370.235 237.85 373.09C227.532 375.793 217.28 371.368 207.334 367.03C201.323 363.826 194.765 361.777 187.989 360.992C181.234 361.755 174.655 363.782 168.644 366.943C161.211 370.823 153.08 373.177 144.73 373.853V373.875ZM187.989 347.412C196.645 348.066 205.083 350.464 212.777 354.497C220.931 358.05 228.582 361.407 234.309 359.924C240.429 358.289 245.501 351.358 250.9 344.034C255.381 336.928 261.261 330.781 268.19 326.029C275.885 322.345 284.257 320.274 292.782 319.925C301.744 318.923 310.226 317.985 314.554 313.669C318.882 309.354 319.844 300.896 320.827 291.959C321.177 283.458 323.254 275.109 326.948 267.436C331.713 260.527 337.856 254.663 344.982 250.194C352.348 244.832 359.256 239.753 360.939 233.65C362.447 227.961 359.081 220.288 355.496 212.179C351.452 204.506 349.048 196.092 348.392 187.461C349.048 178.829 351.474 170.415 355.496 162.742C359.059 154.611 362.425 146.96 360.895 141.271C359.278 135.168 352.305 130.111 344.938 124.727C337.812 120.258 331.691 114.395 326.904 107.485C323.21 99.8119 321.133 91.4851 320.784 82.984C319.778 74.0469 318.838 65.5894 314.488 61.2735C310.138 56.9575 301.679 56.0202 292.716 55.0175C284.191 54.6687 275.819 52.598 268.125 48.9141C261.217 44.1622 255.359 38.0589 250.878 30.9746C245.479 23.6288 240.407 16.7407 234.287 15.0841C228.603 13.58 220.887 16.9151 212.755 20.5117C205.061 24.5225 196.623 26.942 187.967 27.596C179.311 26.942 170.851 24.5007 163.179 20.4681C155.025 16.9151 147.331 13.5582 141.647 15.0841C135.527 16.6971 130.456 23.6506 125.056 30.9746C120.575 38.0807 114.695 44.2058 107.766 48.9577C100.071 52.6416 91.6992 54.7123 83.1741 55.0611C74.2119 56.0638 65.7305 57.0011 61.4024 61.3171C57.0743 65.633 56.1343 74.0905 55.1288 83.0276C54.779 91.5287 52.7024 99.8773 49.0082 107.55C44.2429 114.46 38.1005 120.324 30.9744 124.792C23.6078 130.154 16.6566 135.233 15.0172 141.315C13.5089 147.004 16.8752 154.677 20.4601 162.786C24.5041 170.458 26.9086 178.872 27.5643 187.504C26.9086 196.136 24.4822 204.55 20.4601 212.223C16.8971 220.353 13.5307 228.004 15.0609 233.694C16.6785 239.797 23.6516 244.854 31.0181 250.238C38.1442 254.707 44.2648 260.57 49.0519 267.458C52.7461 275.131 54.8228 283.48 55.1725 291.981C56.178 300.918 57.118 309.375 61.468 313.691C65.8179 318.007 74.2775 318.945 83.2397 319.947C91.7648 320.296 100.137 322.367 107.831 326.051C114.761 330.803 120.641 336.928 125.1 344.034C130.499 351.38 135.571 358.268 141.691 359.924C147.396 361.45 155.069 358.093 163.223 354.497C170.917 350.486 179.333 348.066 187.989 347.412Z" fill="black" stroke="black" stroke-miterlimit="10"/>
<path d="M240.713 475.91H240.101C237.5 475.67 235.27 473.97 234.352 471.529L192.099 358.573C191.814 357.81 191.661 357.025 191.661 356.197C191.618 352.448 194.612 349.374 198.372 349.331C201.476 349.287 204.209 351.358 205.017 354.344L242.156 453.524L269.283 408.272C270.923 405.547 274.224 404.326 277.24 405.307L327.582 421.765L292.563 328.383C291.317 324.852 293.197 320.972 296.739 319.751C300.17 318.552 303.952 320.274 305.307 323.653L345.266 430.266C346.577 433.775 344.785 437.677 341.266 438.985C339.823 439.53 338.227 439.552 336.763 439.072L278.18 419.912L246.572 472.619C245.348 474.668 243.118 475.91 240.735 475.91H240.713Z" fill="black" stroke="black" stroke-miterlimit="10"/>
<path d="M135.287 475.91C132.904 475.91 130.674 474.646 129.45 472.597L97.8418 419.89L39.2591 439.05C35.6961 440.206 31.8488 438.266 30.6685 434.712C30.1875 433.252 30.2313 431.661 30.7559 430.222L70.7145 323.609C72.1135 320.122 76.07 318.443 79.5456 319.817C82.9338 321.168 84.6388 324.917 83.4584 328.361L48.44 421.765L98.7817 405.307C101.798 404.326 105.099 405.547 106.738 408.272L133.844 453.524L171.157 353.821C172.403 350.29 176.273 348.415 179.814 349.658C183.355 350.9 185.235 354.758 183.989 358.29C183.967 358.377 183.923 358.464 183.88 358.573L141.626 471.507C140.708 473.948 138.478 475.649 135.877 475.888C135.68 475.91 135.461 475.91 135.265 475.91H135.287Z" fill="black" stroke="black" stroke-miterlimit="10"/>
<path d="M227.816 114.525C214.154 114.525 200.514 117.359 187.989 122.765C175.464 117.359 161.824 114.525 148.162 114.525H107.329V221.313C107.329 231.579 109.34 241.65 113.274 251.197C117.078 260.418 122.608 268.941 129.669 276.504C136.62 283.959 144.905 290.302 154.282 295.381C163.769 300.504 174.152 304.209 185.147 306.367L187.967 306.912L190.787 306.367C201.782 304.209 212.187 300.504 221.652 295.381C231.03 290.324 239.314 283.959 246.266 276.504C253.348 268.919 258.857 260.396 262.66 251.197C266.617 241.65 268.606 231.579 268.606 221.313V114.525H227.773H227.816ZM254.048 221.291C254.048 255.339 226.898 284.417 187.989 292.068C149.08 284.417 121.931 255.339 121.931 221.291V129.064H148.162C161.802 129.064 175.398 132.378 187.508 138.634L187.989 138.873L188.47 138.634C200.58 132.378 214.176 129.064 227.816 129.064H254.048V221.291Z" fill="black"/>
<path d="M180.644 153.369V270.183C180.644 272.602 178.174 274.281 175.923 273.344C173.453 272.341 171.048 271.207 168.731 269.943C167.791 269.442 166.873 268.919 165.955 268.374C160.468 265.126 155.594 261.246 151.419 256.843C151.353 256.777 151.309 256.712 151.244 256.668C146.544 251.677 142.894 246.118 140.402 240.211C137.844 234.151 136.554 227.786 136.554 221.312V146.699C136.554 145.02 137.932 143.647 139.615 143.647H148.227C149.91 143.647 151.266 144.998 151.266 146.677V158.295C151.266 158.295 151.2 158.295 151.156 158.295V221.334C151.156 222.228 151.2 223.122 151.266 224.015C151.55 227.612 152.424 231.165 153.867 234.587C155.725 238.968 158.457 243.11 162.042 246.881C163.266 248.167 164.578 249.41 165.955 250.587V149.968C165.955 147.898 167.966 146.415 169.955 147.069C173.037 148.05 176.032 149.249 178.939 150.644C179.989 151.145 180.666 152.213 180.666 153.391L180.644 153.369Z" fill="black"/>
<path d="M239.468 182.207V146.677C239.468 144.999 238.09 143.625 236.407 143.625H227.838C226.811 143.625 225.784 143.647 224.778 143.691C220.166 143.887 215.554 144.541 211.051 145.631C210.723 145.718 210.395 145.783 210.067 145.87C205.608 147.026 201.236 148.617 197.083 150.601C196.033 151.102 195.356 152.192 195.356 153.347V270.161C195.356 272.581 197.826 274.259 200.077 273.322C202.547 272.319 204.952 271.186 207.269 269.921C208.209 269.42 209.127 268.897 210.045 268.352C215.532 265.104 220.406 261.224 224.581 256.821C224.647 256.756 224.691 256.712 224.756 256.647C229.456 251.655 233.107 246.096 235.598 240.189C238.156 234.129 239.446 227.765 239.446 221.291V199.253C239.446 194.414 235.402 190.578 230.593 190.752C230.855 190.752 231.139 190.708 231.402 190.708C235.926 190.447 239.446 186.719 239.446 182.207H239.468ZM224.866 221.291C224.866 222.184 224.822 223.078 224.756 223.972C224.472 227.568 223.598 231.121 222.155 234.544C220.297 238.925 217.543 243.067 213.98 246.838C212.756 248.124 211.444 249.366 210.067 250.543V210.087C212.471 209.084 214.942 208.256 217.477 207.645C219.86 207.057 222.308 206.664 224.756 206.446C224.8 206.446 224.822 206.446 224.866 206.446V221.291ZM224.866 191.406C224.866 191.406 224.8 191.406 224.756 191.406C224.057 191.449 223.335 191.515 222.636 191.58C219.707 191.864 216.778 192.365 213.914 193.063C212.909 193.302 211.903 193.586 210.919 193.869C210.635 193.956 210.351 194.043 210.067 194.131V161.02C211.532 160.54 212.996 160.104 214.504 159.756C217.871 158.927 221.324 158.426 224.778 158.252C224.822 158.252 224.844 158.252 224.887 158.252V191.406H224.866Z" fill="black"/>
<path d="M227.817 85.5562C214.155 85.5562 200.514 88.3899 187.989 93.7957C175.464 88.3899 161.824 85.5562 148.162 85.5562H107.329V100.117H148.162C161.802 100.117 175.398 103.409 187.508 109.664L187.989 109.904L188.47 109.664C200.58 103.409 214.176 100.117 227.817 100.117H268.649V85.5562H227.817Z" fill="black"/>
</g>
<defs>
<clipPath id="clip0_24_124">
<rect width="376" height="477" fill="white"/>
</clipPath>
</defs>
</svg>
