<svg width="961" height="663" viewBox="0 0 961 663" fill="none" xmlns="http://www.w3.org/2000/svg">
<g opacity="0.13">
<path d="M-552 -350V477.584L949 477.584V-350L-552 -350Z" stroke="#B9B9B9" stroke-width="23" stroke-linejoin="round"/>
<path d="M198.485 477.584V-350" stroke="#B9B9B9" stroke-width="23" stroke-linejoin="round"/>
<path d="M949 257.422H802.313V-129.839H949" stroke="#B9B9B9" stroke-width="23" stroke-linejoin="round"/>
<path d="M949 203.491H856.902V-75.9073H949" stroke="#B9B9B9" stroke-width="23" stroke-linejoin="round"/>
<path d="M332.653 88.9696C346.532 14.8025 297.72 -56.5846 223.629 -70.478C149.537 -84.3714 78.2224 -35.5099 64.3432 38.6572C50.4639 112.824 99.2757 184.211 173.367 198.105C247.459 211.998 318.774 163.137 332.653 88.9696Z" stroke="#B9B9B9" stroke-width="23" stroke-linejoin="round"/>
</g>
<g opacity="0.27" clip-path="url(#clip0_27_145)">
<path d="M775.557 640.923C775.557 628.723 785.276 618.845 797.279 618.845C809.281 618.845 819 628.74 819 640.923C819 653.106 809.281 663 797.279 663C785.276 663 775.557 653.106 775.557 640.923Z" fill="#D9D9D9"/>
<path d="M601.17 663C613.167 663 622.892 653.116 622.892 640.923C622.892 628.73 613.167 618.845 601.17 618.845C589.174 618.845 579.449 628.73 579.449 640.923C579.449 653.116 589.174 663 601.17 663Z" fill="#D9D9D9"/>
<path d="M383.325 640.923C383.325 628.723 393.043 618.845 405.046 618.845C417.049 618.845 426.767 628.74 426.767 640.923C426.767 653.106 417.032 663 405.046 663C393.06 663 383.325 653.106 383.325 640.923Z" fill="#D9D9D9"/>
<path d="M187.216 640.923C187.216 628.723 196.935 618.845 208.938 618.845C220.941 618.845 230.659 628.74 230.659 640.923C230.659 653.106 220.941 663 208.938 663C196.935 663 187.216 653.106 187.216 640.923Z" fill="#D9D9D9"/>
<path d="M12.8296 663C24.826 663 34.551 653.116 34.551 640.923C34.551 628.73 24.826 618.845 12.8296 618.845C0.833154 618.845 -8.89185 628.73 -8.89185 640.923C-8.89185 653.116 0.833154 663 12.8296 663Z" fill="#D9D9D9"/>
</g>
<defs>
<clipPath id="clip0_27_145">
<rect width="1024" height="663" fill="white" transform="translate(-205)"/>
</clipPath>
</defs>
</svg>
