<svg width="330" height="555" viewBox="0 0 330 555" fill="none" xmlns="http://www.w3.org/2000/svg">
<g opacity="0.42" clip-path="url(#clip0_24_84)">
<path d="M199.172 434.652C199.172 422.452 209.059 412.574 221.233 412.574C233.407 412.574 243.294 422.452 243.294 434.652C243.294 446.851 233.407 456.729 221.233 456.729C209.059 456.729 199.172 446.851 199.172 434.652Z" fill="#D9D9D9"/>
<path d="M0 434.652C0 422.452 9.88706 412.574 22.0608 412.574C34.2346 412.574 44.1216 422.452 44.1216 434.652C44.1216 446.851 34.251 456.729 22.0608 456.729C9.87061 456.729 0 446.851 0 434.652Z" fill="#D9D9D9"/>
<path d="M199.172 228.365C199.172 216.165 209.059 206.287 221.233 206.287C233.407 206.287 243.294 216.165 243.294 228.365C243.294 240.564 233.407 250.442 221.233 250.442C209.059 250.442 199.172 240.564 199.172 228.365Z" fill="#D9D9D9"/>
<path d="M0 228.365C0 216.165 9.88706 206.287 22.0608 206.287C34.2346 206.287 44.1216 216.165 44.1216 228.365C44.1216 240.564 34.251 250.442 22.0608 250.442C9.87061 250.442 0 240.564 0 228.365Z" fill="#D9D9D9"/>
<path d="M199.172 22.0775C199.172 9.87808 209.059 0 221.233 0C233.407 0 243.294 9.87808 243.294 22.0775C243.294 34.2769 233.407 44.155 221.233 44.155C209.059 44.155 199.172 34.2605 199.172 22.0775Z" fill="#D9D9D9"/>
<path d="M0 22.0775C0 9.87808 9.88706 0 22.0608 0C34.2346 0 44.1216 9.87808 44.1216 22.0775C44.1216 34.2769 34.251 44.155 22.0608 44.155C9.87061 44.155 0 34.2769 0 22.0775Z" fill="#D9D9D9"/>
</g>
<defs>
<clipPath id="clip0_24_84">
<rect width="1040" height="663" fill="white"/>
</clipPath>
</defs>
</svg>
