<svg width="316" height="64" viewBox="0 0 316 64" fill="none" xmlns="http://www.w3.org/2000/svg">
<g clip-path="url(#clip0_4_3724)">
<path d="M30.8138 0C13.7918 0 0 14.1479 0 31.6014C0 49.0549 13.7918 63.2028 30.8138 63.2028C47.8358 63.2028 61.6197 49.0549 61.6197 31.6014C61.6197 14.1479 47.8279 0 30.8138 0ZM44.5264 40.9576C44.5264 43.1261 44.0277 44.9615 43.0222 46.4722C42.0167 47.9828 40.6549 49.1523 38.9211 49.9726C37.1951 50.7929 35.2158 51.2071 32.999 51.2071H19.2388V11.9957H33.0544C35.2712 11.9957 37.2426 12.4018 38.9527 13.2302C40.6628 14.0505 42.0088 15.2038 42.9905 16.6738C43.9722 18.1519 44.4631 19.8737 44.4631 21.8554V22.3021C44.4631 24.1295 44.1306 25.632 43.4576 26.8096C42.7847 27.9873 41.9534 28.905 40.9716 29.5872C40.2353 30.0908 39.5307 30.4725 38.8577 30.7486H38.8498C38.7627 30.7892 38.6835 30.838 38.6281 30.9111C36.7597 31.5689 35.1683 31.8857 35.1683 31.8857L29.8875 33.4044V28.4989L24.2188 25.364V42.3626L39.0715 32.6166L39.594 32.2674C40.0611 32.4867 40.5362 32.7547 41.0191 33.0795C42.0009 33.7374 42.8322 34.6552 43.5051 35.8572C44.1781 37.051 44.5106 38.5617 44.5106 40.389V40.9494L44.5264 40.9576Z" fill="white"/>
<path d="M39.7524 32.1699L26.301 43.6702L24.29 42.322L39.7524 32.1699Z" fill="#A3A3A3"/>
<path d="M76.7891 15.4718H84.7934L87.4931 38.253L98.4664 15.4718H107.001L91.6101 47.0082H81.2148L76.7891 15.4718Z" fill="white"/>
<path d="M108.886 46.2367C106.954 45.1483 105.576 43.6458 104.753 41.721C103.929 39.7962 103.723 37.6033 104.135 35.1181C104.515 32.8197 105.434 30.6999 106.875 28.7669C108.315 26.834 110.168 25.2909 112.424 24.1376C114.681 22.9843 117.167 22.4158 119.875 22.4158C122.582 22.4158 124.926 23.0087 126.794 24.1863C128.671 25.364 129.985 26.9314 130.753 28.8807C131.521 30.8299 131.711 32.9252 131.331 35.1668C131.062 36.2226 130.856 36.9536 130.713 37.3434H111.467C111.403 38.6754 111.902 39.7556 112.947 40.584C113.992 41.4124 115.401 41.8347 117.175 41.8347C118.41 41.8347 119.605 41.5992 120.761 41.1281C121.909 40.6571 122.828 40.0804 123.501 39.382L128.679 42.8337C127.119 44.3443 125.227 45.5626 123.018 46.4884C120.809 47.4143 118.473 47.8691 116.027 47.8691C113.192 47.8691 110.817 47.325 108.886 46.2367ZM123.992 32.9415C124.047 32.1537 123.912 31.4065 123.572 30.6918C123.232 29.9852 122.693 29.4248 121.957 29.0106C121.221 28.6045 120.278 28.4015 119.122 28.4015C117.531 28.4015 116.13 28.8076 114.918 29.6278C113.707 30.4481 112.836 31.5527 112.306 32.9415H123.984H123.992Z" fill="white"/>
<path d="M136.065 23.2767H144.07L140.444 47.0082H132.439L136.065 23.2767ZM151.551 34.0785C151.821 32.3567 151.733 31.0248 151.306 30.0827C150.878 29.1487 150.015 28.6776 148.717 28.6776C147.126 28.6776 145.724 29.3517 144.513 30.6999C143.302 32.0481 142.494 33.8998 142.082 36.2551L139.913 35.3942C140.388 32.7628 141.243 30.4644 142.502 28.4989C143.753 26.5335 145.257 25.031 147.015 23.9833C148.772 22.9356 150.649 22.4158 152.652 22.4158C155.486 22.4158 157.513 23.3579 158.732 25.2503C159.959 27.1426 160.284 29.839 159.73 33.3476L157.648 47.0082H149.556L151.543 34.0785H151.551ZM168.716 34.0785C169.009 32.3242 168.93 30.9842 168.47 30.0664C168.011 29.1405 167.125 28.6857 165.794 28.6857C164.203 28.6857 162.833 29.3436 161.678 30.6593C160.53 31.975 159.73 33.843 159.287 36.2632L157.117 35.4023C157.561 32.7709 158.408 30.4725 159.659 28.5071C160.91 26.5416 162.414 25.0391 164.171 23.9914C165.929 22.9437 167.805 22.4239 169.808 22.4239C172.58 22.4239 174.59 23.3335 175.849 25.1447C177.1 26.9558 177.48 29.5304 176.974 32.8603L174.804 47.0163H166.752L168.7 34.0866L168.716 34.0785Z" fill="white"/>
<path d="M183.355 15.4718H191.407L186.538 47.0082H178.486L183.355 15.4718ZM183.133 29.5385H193.837C197.701 29.5385 200.614 30.1882 202.578 31.4877C204.541 32.7872 205.428 34.7526 205.254 37.384C205.167 39.049 204.573 40.6246 203.488 42.1027C202.396 43.589 200.899 44.7747 198.999 45.6681C197.099 46.5615 194.922 47.0082 192.475 47.0082H179.824L183.141 29.5385H183.133ZM185.967 15.4718H197.471C201.01 15.4718 203.433 16.3083 204.747 17.9895C206.061 19.6707 206.481 21.7823 206.006 24.3163C205.507 26.8584 203.892 28.7832 201.161 30.0989C198.429 31.4146 195.064 32.0725 191.05 32.0725H182.421L185.96 15.4637L185.967 15.4718ZM191.85 40.7058C193.386 40.7058 194.637 40.4134 195.611 39.8205C196.584 39.2277 197.186 38.3586 197.424 37.2135C197.63 36.247 197.424 35.443 196.83 34.8095C196.228 34.176 195.199 33.8592 193.758 33.8592H185.485L184.154 40.7139H191.85V40.7058ZM193.354 28.4502C194.74 28.4502 195.872 28.1659 196.735 27.5893C197.606 27.0127 198.176 26.1843 198.437 25.096C198.675 23.9427 198.469 23.0493 197.82 22.3996C197.17 21.7498 196.157 21.425 194.764 21.425H186.886L185.865 28.4583H193.338L193.354 28.4502Z" fill="white"/>
<path d="M212.047 46.2367C210.115 45.1483 208.737 43.6458 207.914 41.721C207.091 39.7962 206.885 37.6033 207.297 35.1181C207.677 32.8197 208.595 30.6999 210.036 28.7669C211.477 26.834 213.329 25.2909 215.586 24.1376C217.842 22.9843 220.328 22.4158 223.036 22.4158C225.744 22.4158 228.087 23.0087 229.956 24.1863C231.832 25.364 233.146 26.9314 233.914 28.8807C234.682 30.8299 234.872 32.9252 234.492 35.1668C234.223 36.2226 234.017 36.9536 233.875 37.3434H214.628C214.565 38.6754 215.063 39.7556 216.108 40.584C217.153 41.4124 218.563 41.8347 220.336 41.8347C221.571 41.8347 222.767 41.5992 223.923 41.1281C225.071 40.6571 225.989 40.0804 226.662 39.382L231.84 42.8337C230.28 44.3443 228.388 45.5626 226.179 46.4884C223.97 47.4143 221.635 47.8691 219.188 47.8691C216.354 47.8691 213.979 47.325 212.047 46.2367ZM227.153 32.9415C227.208 32.1537 227.074 31.4065 226.733 30.6918C226.393 29.9852 225.855 29.4248 225.118 29.0106C224.382 28.6045 223.44 28.4015 222.284 28.4015C220.693 28.4015 219.291 28.8076 218.08 29.6278C216.868 30.4481 215.998 31.5527 215.467 32.9415H227.145H227.153Z" fill="white"/>
<path d="M243.47 29.2218H236.218L237.105 23.2767H244.357L245.592 15.3337H253.779L252.543 23.2767H260.199L259.313 29.2218H251.657L248.917 47.0082H240.731L243.47 29.2218Z" fill="white"/>
<path d="M262.67 46.2204C261.165 45.1159 260.097 43.589 259.463 41.6398C258.83 39.6906 258.687 37.5221 259.044 35.1262C259.4 32.7953 260.247 30.6674 261.585 28.7263C262.923 26.7934 264.57 25.2584 266.517 24.1214C268.465 22.9843 270.484 22.4158 272.574 22.4158C274.664 22.4158 276.461 22.9762 277.95 24.097C279.438 25.2178 280.483 26.7447 281.093 28.6776C281.695 30.6106 281.821 32.7628 281.465 35.1181C281.053 37.449 280.182 39.585 278.852 41.5423C277.522 43.4915 275.915 45.0346 274.031 46.1717C272.147 47.3087 270.136 47.8772 268.014 47.8772C265.892 47.8772 264.166 47.325 262.662 46.2204H262.67ZM274.767 41.2743C275.876 40.6571 276.818 39.8043 277.601 38.7322C278.385 37.6602 278.892 36.4582 279.13 35.1262C279.335 33.7943 279.256 32.5841 278.884 31.4958C278.512 30.4075 277.918 29.5629 277.095 28.9537C276.271 28.3527 275.282 28.0441 274.134 28.0441C272.922 28.0441 271.782 28.3527 270.706 28.9781C269.629 29.5954 268.718 30.4563 267.966 31.5446C267.214 32.6329 266.731 33.843 266.525 35.1749C266.319 36.5069 266.399 37.7089 266.771 38.781C267.143 39.853 267.729 40.6977 268.536 41.2987C269.344 41.9078 270.31 42.2083 271.434 42.2083C272.558 42.2083 273.667 41.8997 274.775 41.2743H274.767ZM280.895 23.2848H288.899L285.313 47.0163H277.309L280.895 23.2848Z" fill="white"/>
<path d="M292.533 23.2767H300.538L296.912 47.0082H288.907L292.533 23.2767ZM296.294 36.3039C296.793 33.5181 297.727 31.0735 299.081 28.9537C300.435 26.834 302.002 25.2178 303.768 24.097C305.533 22.9762 307.323 22.4158 309.12 22.4158C310.917 22.4158 312.255 22.8381 313.387 23.6828C314.519 24.5274 315.295 25.8188 315.707 27.5406C316.119 29.2624 316.087 31.3984 315.62 33.9404H307.616C307.909 32.308 307.821 31.0248 307.346 30.0827C306.871 29.1487 306.064 28.6776 304.916 28.6776C303.942 28.6776 303.024 28.9781 302.153 29.5872C301.282 30.1964 300.53 31.0735 299.896 32.2187C299.263 33.3719 298.812 34.7283 298.55 36.3039H296.294Z" fill="white"/>
</g>
<defs>
<clipPath id="clip0_4_3724">
<rect width="316" height="63.2109" fill="white"/>
</clipPath>
</defs>
</svg>
